<mxfile host="65bd71144e" modified="2021-02-19T04:19:46.551Z" agent="5.0 (Macintosh; Intel Mac OS X 11_2_1) AppleWebKit/537.36 (KHTML, like Gecko) Code/1.53.2 Chrome/87.0.4280.141 Electron/11.2.1 Safari/537.36" etag="DKiNBzMRMDRZHbA-kFXY" version="14.2.4" type="embed">
    <diagram id="3-cXOF-YCAIOPq697iD0" name="Page-1">
        <mxGraphModel dx="531" dy="1330" grid="1" gridSize="10" guides="1" tooltips="1" connect="1" arrows="1" fold="1" page="1" pageScale="1" pageWidth="850" pageHeight="1100" math="0" shadow="0">
            <root>
                <mxCell id="0"/>
                <mxCell id="1" parent="0"/>
                <mxCell id="25" value="&lt;h1 style=&quot;margin: 0 0 0 40px ; border: none ; padding: 0px&quot;&gt;&lt;font color=&quot;#0066cc&quot;&gt;GKE Cluster&lt;/font&gt;&lt;/h1&gt;&lt;blockquote style=&quot;margin: 0 0 0 40px ; border: none ; padding: 0px&quot;&gt;&lt;div&gt;&lt;font color=&quot;#0066cc&quot;&gt;Workload Identity Enabled&lt;/font&gt;&lt;/div&gt;&lt;/blockquote&gt;" style="rounded=1;whiteSpace=wrap;html=1;align=left;strokeColor=#0066CC;" parent="1" vertex="1">
                    <mxGeometry x="40" y="90" width="690" height="510" as="geometry"/>
                </mxCell>
                <mxCell id="6" value="" style="group" parent="1" vertex="1" connectable="0">
                    <mxGeometry x="380" y="360" width="90" height="68" as="geometry"/>
                </mxCell>
                <mxCell id="2" value="" style="html=1;dashed=0;whitespace=wrap;fillColor=#2875E2;strokeColor=#ffffff;points=[[0.005,0.63,0],[0.1,0.2,0],[0.9,0.2,0],[0.5,0,0],[0.995,0.63,0],[0.72,0.99,0],[0.5,1,0],[0.28,0.99,0]];shape=mxgraph.kubernetes.icon;prIcon=svc" parent="6" vertex="1">
                    <mxGeometry x="20" width="50" height="48" as="geometry"/>
                </mxCell>
                <mxCell id="5" value="APIGATEWAY" style="text;html=1;align=center;verticalAlign=middle;resizable=0;points=[];autosize=1;" parent="6" vertex="1">
                    <mxGeometry y="48" width="90" height="20" as="geometry"/>
                </mxCell>
                <mxCell id="7" value="" style="group" parent="1" vertex="1" connectable="0">
                    <mxGeometry x="120" y="222" width="90" height="68" as="geometry"/>
                </mxCell>
                <mxCell id="8" value="" style="html=1;dashed=0;whitespace=wrap;fillColor=#2875E2;strokeColor=#ffffff;points=[[0.005,0.63,0],[0.1,0.2,0],[0.9,0.2,0],[0.5,0,0],[0.995,0.63,0],[0.72,0.99,0],[0.5,1,0],[0.28,0.99,0]];shape=mxgraph.kubernetes.icon;prIcon=svc" parent="7" vertex="1">
                    <mxGeometry x="20" width="50" height="48" as="geometry"/>
                </mxCell>
                <mxCell id="9" value="Saleor-Mirror" style="text;html=1;align=center;verticalAlign=middle;resizable=0;points=[];autosize=1;" parent="7" vertex="1">
                    <mxGeometry y="48" width="90" height="20" as="geometry"/>
                </mxCell>
                <mxCell id="13" value="" style="group" parent="1" vertex="1" connectable="0">
                    <mxGeometry x="580" y="340" width="100" height="68" as="geometry"/>
                </mxCell>
                <mxCell id="14" value="" style="html=1;dashed=0;whitespace=wrap;fillColor=#2875E2;strokeColor=#ffffff;points=[[0.005,0.63,0],[0.1,0.2,0],[0.9,0.2,0],[0.5,0,0],[0.995,0.63,0],[0.72,0.99,0],[0.5,1,0],[0.28,0.99,0]];shape=mxgraph.kubernetes.icon;prIcon=svc" parent="13" vertex="1">
                    <mxGeometry x="20" width="50" height="48" as="geometry"/>
                </mxCell>
                <mxCell id="15" value="mirror-media-nuxt" style="text;html=1;align=center;verticalAlign=middle;resizable=0;points=[];autosize=1;" parent="13" vertex="1">
                    <mxGeometry x="-10" y="48" width="110" height="20" as="geometry"/>
                </mxCell>
                <mxCell id="16" value="" style="group" parent="1" vertex="1" connectable="0">
                    <mxGeometry x="380" y="200" width="90" height="68" as="geometry"/>
                </mxCell>
                <mxCell id="17" value="" style="html=1;dashed=0;whitespace=wrap;fillColor=#2875E2;strokeColor=#ffffff;points=[[0.005,0.63,0],[0.1,0.2,0],[0.9,0.2,0],[0.5,0,0],[0.995,0.63,0],[0.72,0.99,0],[0.5,1,0],[0.28,0.99,0]];shape=mxgraph.kubernetes.icon;prIcon=svc" parent="16" vertex="1">
                    <mxGeometry x="20" width="50" height="48" as="geometry"/>
                </mxCell>
                <mxCell id="18" value="Nginx" style="text;html=1;align=center;verticalAlign=middle;resizable=0;points=[];autosize=1;" parent="16" vertex="1">
                    <mxGeometry x="20" y="48" width="50" height="20" as="geometry"/>
                </mxCell>
                <mxCell id="21" style="edgeStyle=none;rounded=0;orthogonalLoop=1;jettySize=auto;html=1;exitX=0.5;exitY=1;exitDx=0;exitDy=0;entryX=0.5;entryY=0;entryDx=0;entryDy=0;entryPerimeter=0;" parent="1" source="19" target="17" edge="1">
                    <mxGeometry relative="1" as="geometry"/>
                </mxCell>
                <mxCell id="19" value="" style="strokeColor=#dddddd;shadow=1;strokeWidth=1;rounded=1;absoluteArcSize=1;arcSize=2;" parent="1" vertex="1">
                    <mxGeometry x="360" y="60" width="130" height="60" as="geometry"/>
                </mxCell>
                <mxCell id="20" value="Cloud Load&#10;Balancing" style="dashed=0;connectable=0;html=1;fillColor=#5184F3;strokeColor=none;shape=mxgraph.gcp2.hexIcon;prIcon=cloud_load_balancing;part=1;labelPosition=right;verticalLabelPosition=middle;align=left;verticalAlign=middle;spacingLeft=5;fontColor=#999999;fontSize=12;" parent="19" vertex="1">
                    <mxGeometry y="0.5" width="44" height="39" relative="1" as="geometry">
                        <mxPoint x="5" y="-19.5" as="offset"/>
                    </mxGeometry>
                </mxCell>
                <mxCell id="22" style="edgeStyle=none;rounded=0;orthogonalLoop=1;jettySize=auto;html=1;entryX=0.5;entryY=0;entryDx=0;entryDy=0;entryPerimeter=0;" parent="1" source="18" target="2" edge="1">
                    <mxGeometry relative="1" as="geometry"/>
                </mxCell>
                <mxCell id="23" style="edgeStyle=none;rounded=0;orthogonalLoop=1;jettySize=auto;html=1;exitX=0.995;exitY=0.63;exitDx=0;exitDy=0;exitPerimeter=0;entryX=0.5;entryY=0;entryDx=0;entryDy=0;entryPerimeter=0;" parent="1" source="17" target="14" edge="1">
                    <mxGeometry relative="1" as="geometry"/>
                </mxCell>
                <mxCell id="27" value="Mobile client" style="outlineConnect=0;fontColor=#232F3E;gradientColor=none;strokeColor=#232F3E;fillColor=#ffffff;dashed=0;verticalLabelPosition=bottom;verticalAlign=top;align=center;html=1;fontSize=12;fontStyle=0;aspect=fixed;shape=mxgraph.aws4.resourceIcon;resIcon=mxgraph.aws4.mobile_client;" parent="1" vertex="1">
                    <mxGeometry x="180" y="-43" width="60" height="60" as="geometry"/>
                </mxCell>
                <mxCell id="30" style="rounded=0;orthogonalLoop=1;jettySize=auto;html=1;exitX=0;exitY=0.5;exitDx=0;exitDy=0;exitPerimeter=0;" parent="1" source="28" target="29" edge="1">
                    <mxGeometry relative="1" as="geometry"/>
                </mxCell>
                <mxCell id="70" style="edgeStyle=orthogonalEdgeStyle;rounded=0;orthogonalLoop=1;jettySize=auto;html=1;exitX=1;exitY=0.5;exitDx=0;exitDy=0;exitPerimeter=0;entryX=0.5;entryY=0;entryDx=0;entryDy=0;" parent="1" source="28" target="68" edge="1">
                    <mxGeometry relative="1" as="geometry"/>
                </mxCell>
                <mxCell id="28" value="" style="outlineConnect=0;dashed=0;verticalLabelPosition=bottom;verticalAlign=top;align=center;html=1;shape=mxgraph.aws3.management_console;fillColor=#D2D3D3;gradientColor=none;strokeColor=#0066CC;" parent="1" vertex="1">
                    <mxGeometry x="610" y="-43" width="63" height="63" as="geometry"/>
                </mxCell>
                <mxCell id="33" value="" style="edgeStyle=none;rounded=0;orthogonalLoop=1;jettySize=auto;html=1;" parent="1" source="29" target="19" edge="1">
                    <mxGeometry relative="1" as="geometry"/>
                </mxCell>
                <mxCell id="29" value="CDN" style="aspect=fixed;html=1;points=[];align=center;image;fontSize=12;image=img/lib/azure2/app_services/CDN_Profiles.svg;strokeColor=#0066CC;" parent="1" vertex="1">
                    <mxGeometry x="391" y="-30" width="68" height="40" as="geometry"/>
                </mxCell>
                <mxCell id="32" value="" style="endArrow=classic;html=1;entryX=-0.004;entryY=0.431;entryDx=0;entryDy=0;entryPerimeter=0;" parent="1" source="27" target="29" edge="1">
                    <mxGeometry width="50" height="50" relative="1" as="geometry">
                        <mxPoint x="410" y="80" as="sourcePoint"/>
                        <mxPoint x="460" y="30" as="targetPoint"/>
                    </mxGeometry>
                </mxCell>
                <mxCell id="34" style="edgeStyle=none;rounded=0;orthogonalLoop=1;jettySize=auto;html=1;exitX=0.005;exitY=0.63;exitDx=0;exitDy=0;exitPerimeter=0;entryX=0.9;entryY=0.2;entryDx=0;entryDy=0;entryPerimeter=0;" parent="1" source="14" edge="1" target="2">
                    <mxGeometry relative="1" as="geometry">
                        <mxPoint x="450" y="391" as="targetPoint"/>
                    </mxGeometry>
                </mxCell>
                <mxCell id="35" style="edgeStyle=none;rounded=0;orthogonalLoop=1;jettySize=auto;html=1;exitX=0.1;exitY=0.2;exitDx=0;exitDy=0;exitPerimeter=0;entryX=0.995;entryY=0.63;entryDx=0;entryDy=0;entryPerimeter=0;" parent="1" source="41" target="8" edge="1">
                    <mxGeometry relative="1" as="geometry"/>
                </mxCell>
                <mxCell id="36" value="app.mirrormedia.mg" style="text;html=1;strokeColor=none;fillColor=none;align=center;verticalAlign=middle;whiteSpace=wrap;rounded=0;" parent="1" vertex="1">
                    <mxGeometry x="405" y="310" width="40" height="20" as="geometry"/>
                </mxCell>
                <mxCell id="38" value="www.mirrormedia.mg" style="text;html=1;strokeColor=none;fillColor=none;align=center;verticalAlign=middle;whiteSpace=wrap;rounded=0;" parent="1" vertex="1">
                    <mxGeometry x="561.5" y="270" width="40" height="20" as="geometry"/>
                </mxCell>
                <mxCell id="42" value="www.mirrormedia.mg" style="text;html=1;strokeColor=none;fillColor=none;align=center;verticalAlign=middle;whiteSpace=wrap;rounded=0;" parent="1" vertex="1">
                    <mxGeometry x="510" y="-30" width="40" height="20" as="geometry"/>
                </mxCell>
                <mxCell id="43" value="app.mirrormedia.mg" style="text;html=1;strokeColor=none;fillColor=none;align=center;verticalAlign=middle;whiteSpace=wrap;rounded=0;" parent="1" vertex="1">
                    <mxGeometry x="290" y="-30" width="40" height="20" as="geometry"/>
                </mxCell>
                <mxCell id="48" value="" style="group" parent="1" vertex="1" connectable="0">
                    <mxGeometry x="240" y="470" width="120" height="70" as="geometry"/>
                </mxCell>
                <mxCell id="44" value="" style="html=1;dashed=0;whitespace=wrap;fillColor=#2875E2;strokeColor=#ffffff;points=[[0.005,0.63,0],[0.1,0.2,0],[0.9,0.2,0],[0.5,0,0],[0.995,0.63,0],[0.72,0.99,0],[0.5,1,0],[0.28,0.99,0]];shape=mxgraph.kubernetes.icon;prIcon=sa" parent="48" vertex="1">
                    <mxGeometry x="35" width="50" height="48" as="geometry"/>
                </mxCell>
                <mxCell id="45" value="ksa-mm-apigateway" style="text;html=1;align=center;verticalAlign=middle;resizable=0;points=[];autosize=1;" parent="48" vertex="1">
                    <mxGeometry y="50" width="120" height="20" as="geometry"/>
                </mxCell>
                <mxCell id="49" value="" style="endArrow=none;dashed=1;html=1;entryX=0.28;entryY=0.99;entryDx=0;entryDy=0;entryPerimeter=0;exitX=0.9;exitY=0.2;exitDx=0;exitDy=0;exitPerimeter=0;" parent="1" source="44" target="2" edge="1">
                    <mxGeometry width="50" height="50" relative="1" as="geometry">
                        <mxPoint x="340" y="530" as="sourcePoint"/>
                        <mxPoint x="390" y="480" as="targetPoint"/>
                    </mxGeometry>
                </mxCell>
                <mxCell id="57" value="" style="endArrow=none;dashed=1;html=1;exitX=0.5;exitY=0;exitDx=0;exitDy=0;" parent="1" source="52" target="45" edge="1">
                    <mxGeometry width="50" height="50" relative="1" as="geometry">
                        <mxPoint x="320" y="640" as="sourcePoint"/>
                        <mxPoint x="370" y="590" as="targetPoint"/>
                    </mxGeometry>
                </mxCell>
                <mxCell id="58" value="Allow the Kubernetes service account to &lt;a href=&quot;https://cloud.google.com/kubernetes-engine/docs/how-to/workload-identity#authenticating_to&quot;&gt;impersonate&lt;/a&gt; the Google service account" style="text;whiteSpace=wrap;html=1;shadow=1;fillColor=#D9D9D9;" parent="1" vertex="1">
                    <mxGeometry x="80" y="630" width="460" height="30" as="geometry"/>
                </mxCell>
                <mxCell id="59" value="pod spec:serviceAccount" style="text;whiteSpace=wrap;html=1;" parent="1" vertex="1">
                    <mxGeometry x="220" y="428" width="140" height="30" as="geometry"/>
                </mxCell>
                <mxCell id="63" value="" style="group" parent="1" vertex="1" connectable="0">
                    <mxGeometry x="506.5" y="720" width="270" height="74" as="geometry"/>
                </mxCell>
                <mxCell id="60" value="" style="html=1;dashed=0;whitespace=wrap;fillColor=#2875E2;strokeColor=#ffffff;points=[[0.005,0.63,0],[0.1,0.2,0],[0.9,0.2,0],[0.5,0,0],[0.995,0.63,0],[0.72,0.99,0],[0.5,1,0],[0.28,0.99,0]];shape=mxgraph.kubernetes.icon;prIcon=secret;shadow=1;" parent="63" vertex="1">
                    <mxGeometry x="110" width="50" height="48" as="geometry"/>
                </mxCell>
                <mxCell id="61" value="&lt;table class=&quot;cfc-table-element cfc-table-selection-multiple cfc-md1&quot;&gt;&lt;tbody&gt;&lt;tr class=&quot;cfctest-table-body-row cfc-outline-focus-indicator ng-star-inserted&quot; id=&quot;_1rif_cfc-table-caption-0-row-1&quot;&gt;&lt;td tabindex=&quot;-1&quot; style=&quot;max-width: none ; min-width: 0px&quot; class=&quot;cfctest-table-body-column cfc-table-cell-container cfc-table-cell-container-for-col-0 cfc-outline-focus-indicator ng-star-inserted&quot;&gt;&lt;a href=&quot;https://console.cloud.google.com/security/secret-manager/secret/saleor-mirror-token-for-mm-apigateway-dev?authuser=2&amp;amp;project=mirrormedia-1470651750304&quot; class=&quot;ng-star-inserted&quot;&gt;saleor-mirror-token-for-mm-apigateway-dev &lt;/a&gt;&lt;/td&gt;&lt;td tabindex=&quot;-1&quot; style=&quot;max-width: none ; min-width: 0px&quot; class=&quot;cfctest-table-body-column cfc-table-cell-container cfc-table-cell-container-for-col-1 cfc-outline-focus-indicator ng-star-inserted&quot;&gt; &lt;/td&gt;&lt;/tr&gt;&lt;/tbody&gt;&lt;/table&gt;&lt;a href=&quot;https://console.cloud.google.com/security/secret-manager/secret/saleor-mirror-token-for-mm-apigateway-prod?authuser=2&amp;amp;project=mirrormedia-1470651750304&quot; class=&quot;ng-star-inserted&quot;&gt;saleor-mirror-token-for-mm-apigateway-prod&lt;/a&gt;" style="text;whiteSpace=wrap;html=1;align=center;" parent="63" vertex="1">
                    <mxGeometry y="44" width="270" height="30" as="geometry"/>
                </mxCell>
                <mxCell id="65" value="IAM Permits View" style="text;html=1;align=center;verticalAlign=middle;resizable=0;points=[];autosize=1;" parent="63" vertex="1">
                    <mxGeometry x="-26.5" y="10" width="110" height="20" as="geometry"/>
                </mxCell>
                <mxCell id="64" value="" style="shape=link;html=1;exitX=1;exitY=0.5;exitDx=0;exitDy=0;entryX=0.005;entryY=0.63;entryDx=0;entryDy=0;entryPerimeter=0;" parent="1" source="52" target="60" edge="1">
                    <mxGeometry width="100" relative="1" as="geometry">
                        <mxPoint x="520" y="650" as="sourcePoint"/>
                        <mxPoint x="620" y="650" as="targetPoint"/>
                    </mxGeometry>
                </mxCell>
                <mxCell id="66" style="edgeStyle=orthogonalEdgeStyle;rounded=0;orthogonalLoop=1;jettySize=auto;html=1;exitX=0.5;exitY=1;exitDx=0;exitDy=0;exitPerimeter=0;entryX=0.5;entryY=0;entryDx=0;entryDy=0;entryPerimeter=0;" parent="1" source="2" target="60" edge="1">
                    <mxGeometry relative="1" as="geometry">
                        <mxPoint x="690" y="630" as="targetPoint"/>
                        <Array as="points">
                            <mxPoint x="425" y="550"/>
                            <mxPoint x="642" y="550"/>
                        </Array>
                    </mxGeometry>
                </mxCell>
                <mxCell id="67" value="Gateway reads the secret as&lt;br&gt;a Gateway token for Saelor-Mirror" style="text;html=1;align=left;verticalAlign=middle;resizable=0;points=[];autosize=1;" parent="1" vertex="1">
                    <mxGeometry x="440" y="560" width="200" height="30" as="geometry"/>
                </mxCell>
                <mxCell id="68" value="" style="strokeColor=#dddddd;shadow=1;strokeWidth=1;rounded=1;absoluteArcSize=1;arcSize=2;" parent="1" vertex="1">
                    <mxGeometry x="840" y="360" width="100" height="60" as="geometry"/>
                </mxCell>
                <mxCell id="69" value="Firebase" style="dashed=0;connectable=0;html=1;fillColor=#5184F3;strokeColor=none;shape=mxgraph.gcp2.firebase;part=1;labelPosition=right;verticalLabelPosition=middle;align=left;verticalAlign=middle;spacingLeft=5;fontColor=#999999;fontSize=12;" parent="68" vertex="1">
                    <mxGeometry width="32.4" height="45" relative="1" as="geometry">
                        <mxPoint x="5" y="7" as="offset"/>
                    </mxGeometry>
                </mxCell>
                <mxCell id="71" value="User is authenticated by Firebase" style="text;html=1;align=center;verticalAlign=middle;resizable=0;points=[];autosize=1;" parent="1" vertex="1">
                    <mxGeometry x="690" y="-70" width="190" height="20" as="geometry"/>
                </mxCell>
                <mxCell id="72" style="edgeStyle=orthogonalEdgeStyle;rounded=0;orthogonalLoop=1;jettySize=auto;html=1;exitX=0.995;exitY=0.63;exitDx=0;exitDy=0;exitPerimeter=0;entryX=0.5;entryY=1;entryDx=0;entryDy=0;" parent="1" source="2" target="68" edge="1">
                    <mxGeometry relative="1" as="geometry">
                        <Array as="points">
                            <mxPoint x="450" y="440"/>
                            <mxPoint x="890" y="440"/>
                        </Array>
                    </mxGeometry>
                </mxCell>
                <mxCell id="73" value="&lt;ol&gt;&lt;li&gt;&lt;font style=&quot;font-size: 10px&quot;&gt;Gateway verifies&lt;/font&gt;&lt;font style=&quot;font-size: 10px&quot;&gt;&amp;nbsp;and revoke user token with Firebase and FirebaseDB&lt;/font&gt;&lt;/li&gt;&lt;li&gt;&lt;font style=&quot;font-size: 10px&quot;&gt;Gateway writes revoked token as metadata in FirebaseDB&lt;/font&gt;&lt;/li&gt;&lt;/ol&gt;" style="text;html=1;align=left;verticalAlign=middle;resizable=0;points=[];autosize=1;" parent="1" vertex="1">
                    <mxGeometry x="459" y="404" width="370" height="70" as="geometry"/>
                </mxCell>
                <mxCell id="74" value="{  &quot;rules&quot;: {    &quot;users&quot;: {      &quot;$user_id&quot;: {        &quot;.read&quot;: &quot;$user_id === auth.uid &amp;&amp; auth.token.auth_time &gt; (root.child('metadata').child(auth.uid).exists() &amp;&amp; root.child('metadata').child(auth.uid).child('revokeTime').exists() ? root.child('metadata').child(auth.uid).child('revokeTime').val() : 0)&quot;,        &quot;.write&quot;: &quot;$user_id === auth.uid &amp;&amp; auth.token.auth_time &gt; (root.child('metadata').child(auth.uid).exists() &amp;&amp; root.child('metadata').child(auth.uid).child('revokeTime').exists() ? root.child('metadata').child(auth.uid).child('revokeTime').val() : 0)&quot;      }    }  }}" style="text;whiteSpace=wrap;html=1;shadow=1;strokeColor=#F2C355;fillColor=#FFDD99;" parent="1" vertex="1">
                    <mxGeometry x="920" y="480" width="470" height="110" as="geometry"/>
                </mxCell>
                <mxCell id="75" value="" style="shape=link;html=1;entryX=0.25;entryY=0;entryDx=0;entryDy=0;exitX=1;exitY=0.5;exitDx=0;exitDy=0;" parent="1" source="68" target="74" edge="1">
                    <mxGeometry width="100" relative="1" as="geometry">
                        <mxPoint x="960" y="340" as="sourcePoint"/>
                        <mxPoint x="1060" y="340" as="targetPoint"/>
                    </mxGeometry>
                </mxCell>
                <mxCell id="76" value="FirebaseDB Rule for token verification" style="text;html=1;align=center;verticalAlign=middle;resizable=0;points=[];autosize=1;" parent="1" vertex="1">
                    <mxGeometry x="990" y="410" width="220" height="20" as="geometry"/>
                </mxCell>
                <mxCell id="77" value="" style="endArrow=none;html=1;" parent="1" source="27" edge="1">
                    <mxGeometry width="50" height="50" relative="1" as="geometry">
                        <mxPoint x="250" y="-140" as="sourcePoint"/>
                        <mxPoint x="890" y="-13" as="targetPoint"/>
                        <Array as="points">
                            <mxPoint x="207" y="-120"/>
                            <mxPoint x="890" y="-120"/>
                        </Array>
                    </mxGeometry>
                </mxCell>
                <mxCell id="79" value="" style="shape=link;html=1;entryX=0.25;entryY=0;entryDx=0;entryDy=0;exitX=1;exitY=0.5;exitDx=0;exitDy=0;" parent="1" edge="1">
                    <mxGeometry width="100" relative="1" as="geometry">
                        <mxPoint x="800" y="460" as="sourcePoint"/>
                        <mxPoint x="897.5" y="550" as="targetPoint"/>
                    </mxGeometry>
                </mxCell>
                <mxCell id="40" value="(api with Firebase Token)" style="text;html=1;strokeColor=none;fillColor=none;align=center;verticalAlign=middle;whiteSpace=wrap;rounded=0;" parent="1" vertex="1">
                    <mxGeometry x="450" y="340" width="140" height="20" as="geometry"/>
                </mxCell>
                <mxCell id="80" value="Cloud&#10;Pub/Sub" style="html=1;fillColor=#5184F3;strokeColor=none;verticalAlign=top;labelPosition=center;verticalLabelPosition=bottom;align=center;spacingTop=-6;fontSize=11;fontStyle=1;fontColor=#999999;shape=mxgraph.gcp2.hexIcon;prIcon=cloud_pubsub" vertex="1" parent="1">
                    <mxGeometry x="608.5" y="830" width="66" height="58.5" as="geometry"/>
                </mxCell>
                <mxCell id="82" value="&lt;div&gt;&lt;a href=&quot;https://console.cloud.google.com/cloudpubsub/topic/detail/mm-member.prod?authuser=2&amp;amp;project=mirrormedia-1470651750304&quot;&gt;mm-member.prod&lt;/a&gt;&lt;br&gt;&lt;a href=&quot;https://console.cloud.google.com/cloudpubsub/topic/detail/mm-member.dev?authuser=2&amp;amp;project=mirrormedia-1470651750304&quot;&gt;mm-member.dev&lt;/a&gt;&lt;/div&gt;" style="text;whiteSpace=wrap;html=1;align=center;" vertex="1" parent="1">
                    <mxGeometry x="584" y="910" width="120" height="30" as="geometry"/>
                </mxCell>
                <mxCell id="84" value="" style="shape=link;html=1;exitX=0.75;exitY=1;exitDx=0;exitDy=0;entryX=0.175;entryY=0.5;entryDx=0;entryDy=0;entryPerimeter=0;" edge="1" parent="1" source="52" target="80">
                    <mxGeometry width="100" relative="1" as="geometry">
                        <mxPoint x="470" y="830" as="sourcePoint"/>
                        <mxPoint x="570" y="830" as="targetPoint"/>
                    </mxGeometry>
                </mxCell>
                <mxCell id="52" value="" style="strokeColor=#dddddd;shadow=1;strokeWidth=1;rounded=1;absoluteArcSize=1;arcSize=2;" parent="1" vertex="1">
                    <mxGeometry x="140" y="720" width="320" height="60" as="geometry"/>
                </mxCell>
                <mxCell id="53" value="&lt;font color=&quot;#000000&quot; style=&quot;font-size: 8px&quot;&gt;mm-apigateway@mirrormedia-1470651750304.iam.gserviceaccount.com&lt;/font&gt;&lt;br&gt;Cloud IAM" style="dashed=0;connectable=0;html=1;fillColor=#5184F3;strokeColor=none;shape=mxgraph.gcp2.hexIcon;prIcon=cloud_iam;part=1;labelPosition=right;verticalLabelPosition=middle;align=left;verticalAlign=middle;spacingLeft=5;fontColor=#999999;fontSize=12;" parent="52" vertex="1">
                    <mxGeometry y="0.5" width="44" height="39" relative="1" as="geometry">
                        <mxPoint x="5" y="-19.5" as="offset"/>
                    </mxGeometry>
                </mxCell>
                <mxCell id="85" value="IAM Permits&lt;br&gt;&lt;span&gt;Pub/Sub Publisher&lt;br&gt;&lt;/span&gt;&lt;span&gt;Pub/Sub Subscriber&lt;/span&gt;&lt;span&gt;&lt;br&gt;&lt;/span&gt;" style="text;html=1;align=center;verticalAlign=middle;resizable=0;points=[];autosize=1;" vertex="1" parent="1">
                    <mxGeometry x="425" y="830" width="120" height="50" as="geometry"/>
                </mxCell>
                <mxCell id="41" value="(api with Gateway token)" style="text;html=1;strokeColor=none;fillColor=none;align=center;verticalAlign=middle;whiteSpace=wrap;rounded=0;" parent="1" vertex="1">
                    <mxGeometry x="210" y="290" width="145" height="20" as="geometry"/>
                </mxCell>
                <mxCell id="87" style="edgeStyle=none;rounded=0;orthogonalLoop=1;jettySize=auto;html=1;exitX=0.1;exitY=0.2;exitDx=0;exitDy=0;exitPerimeter=0;entryX=0.995;entryY=0.63;entryDx=0;entryDy=0;entryPerimeter=0;" edge="1" parent="1" source="2" target="41">
                    <mxGeometry relative="1" as="geometry">
                        <mxPoint x="405" y="369.5999999999999" as="sourcePoint"/>
                        <mxPoint x="189.75" y="252.24" as="targetPoint"/>
                    </mxGeometry>
                </mxCell>
                <mxCell id="88" value="" style="edgeStyle=orthogonalEdgeStyle;rounded=0;orthogonalLoop=1;jettySize=auto;html=1;" edge="1" parent="1" source="5" target="41">
                    <mxGeometry relative="1" as="geometry"/>
                </mxCell>
                <mxCell id="89" style="edgeStyle=orthogonalEdgeStyle;rounded=0;orthogonalLoop=1;jettySize=auto;html=1;exitX=0.72;exitY=0.99;exitDx=0;exitDy=0;exitPerimeter=0;entryX=0.825;entryY=0.5;entryDx=0;entryDy=0;entryPerimeter=0;" edge="1" parent="1" source="2" target="80">
                    <mxGeometry relative="1" as="geometry">
                        <mxPoint x="680" y="850" as="targetPoint"/>
                        <Array as="points">
                            <mxPoint x="436" y="490"/>
                            <mxPoint x="780" y="490"/>
                            <mxPoint x="780" y="859"/>
                        </Array>
                    </mxGeometry>
                </mxCell>
                <mxCell id="90" value="Publish/Subscribe Member event" style="text;html=1;align=center;verticalAlign=middle;resizable=0;points=[];autosize=1;" vertex="1" parent="1">
                    <mxGeometry x="500" y="495" width="190" height="20" as="geometry"/>
                </mxCell>
            </root>
        </mxGraphModel>
    </diagram>
</mxfile>